<?xml version="1.0" standalone="no"?>
<!DOCTYPE svg PUBLIC "-//W3C//DTD SVG 20010904//EN"
 "http://www.w3.org/TR/2001/REC-SVG-20010904/DTD/svg10.dtd">
<svg version="1.0" xmlns="http://www.w3.org/2000/svg"
 width="391.000000pt" height="391.000000pt" viewBox="0 0 391.000000 391.000000"
 preserveAspectRatio="xMidYMid meet">
<metadata>
Created by potrace 1.14, written by Peter Selinger 2001-2017
</metadata>
<g transform="translate(0.000000,391.000000) scale(0.100000,-0.100000)"
fill="#000000" stroke="none">
<path d="M0 1955 l0 -1955 1955 0 1955 0 0 1955 0 1955 -1955 0 -1955 0 0
-1955z m1580 135 l0 -380 -90 0 -90 0 0 310 c0 339 3 359 58 407 33 30 59 42
95 42 l27 1 0 -380z m-884 191 c23 -10 54 -36 70 -57 l29 -37 3 -239 3 -238
-109 0 c-118 0 -162 11 -198 52 -41 44 -44 62 -44 243 0 174 0 176 27 217 48
71 138 96 219 59z m470 3 c65 -27 94 -62 109 -131 6 -29 4 -33 -14 -33 -20 0
-21 -2 -7 -27 7 -16 17 -43 21 -60 6 -29 4 -33 -15 -33 -18 0 -19 -3 -9 -22 7
-13 15 -37 20 -55 l7 -33 -56 0 c-49 0 -60 -4 -89 -32 -30 -29 -33 -37 -33
-90 l0 -58 -90 0 -90 0 0 218 c1 272 12 310 105 353 49 23 91 24 141 3z m892
-217 l-3 -234 -28 -41 c-84 -128 -265 -101 -315 47 -8 21 -12 113 -12 247 l0
214 181 0 180 0 -3 -233z m368 217 c57 -24 92 -68 110 -139 5 -21 2 -25 -15
-25 -25 0 -25 1 -7 -36 8 -16 18 -41 21 -56 6 -24 4 -28 -14 -28 -25 0 -25 0
-6 -36 8 -16 15 -39 15 -51 0 -22 -4 -23 -85 -23 l-85 0 0 -90 0 -90 -90 0
-90 0 0 228 0 228 30 48 c49 77 134 104 216 70z m582 -26 c-5 -24 -13 -47 -19
-52 -14 -15 -11 -26 6 -26 22 0 19 -48 -5 -87 -19 -32 -19 -33 0 -33 19 0 21
-11 21 -115 -1 -313 -3 -325 -71 -374 -93 -67 -196 -44 -259 59 -27 45 -28 80
-2 80 18 0 18 1 0 37 -25 50 -25 83 1 83 20 0 20 0 0 33 -18 29 -20 50 -20
235 l0 202 179 0 179 0 -10 -42z m482 15 c0 -16 -9 -43 -20 -60 -20 -33 -20
-33 0 -33 27 0 27 -44 0 -87 -19 -32 -19 -33 0 -33 18 0 19 -9 19 -197 0 -227
-5 -247 -77 -298 -104 -72 -243 -14 -268 114 -6 26 -4 31 14 31 20 0 20 0 1
37 -26 52 -25 83 4 83 13 0 18 3 10 8 -26 17 -33 69 -33 263 l0 199 175 0 175
0 0 -27z"/>
</g>
</svg>
